<?xml version="1.0" standalone="no"?>
<!DOCTYPE svg PUBLIC "-//W3C//DTD SVG 20010904//EN"
 "http://www.w3.org/TR/2001/REC-SVG-20010904/DTD/svg10.dtd">
<svg version="1.0" xmlns="http://www.w3.org/2000/svg"
 width="1024.000000pt" height="1024.000000pt" viewBox="0 0 1024.000000 1024.000000"
 preserveAspectRatio="xMidYMid meet">
<metadata>
Created by potrace 1.14, written by Peter Selinger 2001-2017
</metadata>
<g transform="translate(0.000000,1024.000000) scale(0.100000,-0.100000)"
fill="#000000" stroke="none">
<path d="M325 9190 l-40 -5 1 -1885 c1 -1037 2 -1890 3 -1895 1 -13 1390 -14
1410 -1 11 7 12 6 6 -5 -7 -12 -6 -12 7 -1 11 9 18 10 23 2 3 -6 11 -7 17 -3
7 3 34 7 62 9 28 1 51 3 51 4 0 1 11 3 25 5 51 5 117 18 180 35 25 7 50 13 55
15 6 1 23 7 38 13 16 7 34 12 42 12 8 0 16 4 20 9 3 5 19 12 35 16 17 4 30 11
30 16 0 6 4 8 9 4 5 -3 15 0 23 7 7 7 19 14 27 16 7 1 20 9 28 17 8 8 21 15
29 15 8 0 14 5 14 11 0 5 4 8 9 5 5 -3 12 1 15 10 4 9 9 15 12 12 15 -16 213
186 254 259 18 32 36 60 40 63 5 3 10 14 12 25 1 11 6 22 9 25 8 7 50 119 55
150 3 14 9 41 14 61 28 103 34 378 11 484 -40 188 -136 372 -251 480 -23 22
-50 48 -58 58 -9 9 -22 17 -29 17 -7 0 -13 4 -13 8 0 11 -177 102 -196 102 -8
0 -14 5 -14 11 0 6 -6 9 -12 7 -7 -3 -26 1 -43 8 -25 11 -25 16 1 13 3 0 12 8
20 18 7 10 14 14 14 10 0 -5 7 -1 16 7 8 9 20 14 25 11 5 -4 9 -1 9 4 0 6 6
11 14 11 7 0 25 11 40 25 15 14 30 25 34 25 28 1 170 145 230 235 46 68 102
192 105 234 1 12 4 21 7 21 7 0 11 52 13 208 1 72 0 132 -3 132 -3 0 -6 10 -7
23 -1 36 -11 100 -22 135 -5 18 -11 36 -12 40 -29 113 -100 242 -178 322 -58
60 -176 152 -185 143 -3 -3 -6 0 -6 7 0 7 -3 10 -7 7 -3 -4 -15 0 -25 10 -10
9 -18 13 -18 9 0 -4 -13 2 -30 14 -16 12 -34 18 -40 15 -6 -3 -13 1 -16 9 -4
9 -18 16 -33 16 -15 0 -31 4 -37 8 -10 9 -67 29 -104 36 -14 3 -36 8 -50 11
-14 3 -36 7 -50 10 -14 3 -36 7 -49 10 -13 2 -41 5 -62 7 -22 1 -39 4 -39 7 0
15 -1040 20 -1040 6 0 -7 -3 -7 -8 0 -4 6 -69 10 -157 10 -88 0 -153 -4 -157
-10 -5 -7 -8 -7 -8 0 0 11 -33 13 -95 5z m575 -408 c0 7 4 7 13 0 8 -7 18 -7
27 -2 9 5 19 5 27 -2 9 -7 13 -7 13 2 0 9 4 9 13 2 7 -6 19 -7 26 -3 7 5 28 5
47 1 20 -5 34 -4 34 1 0 6 8 5 19 -1 12 -6 22 -6 25 -1 3 5 21 5 41 1 22 -5
35 -4 35 2 0 7 4 7 13 0 7 -6 18 -8 24 -4 6 4 54 5 107 2 53 -3 96 -1 96 4 0
5 6 4 13 -2 8 -7 18 -7 27 -2 8 5 17 7 20 5 3 -2 50 -6 105 -10 150 -11 148
-10 174 -24 19 -11 22 -11 15 1 -6 10 -4 10 9 -1 10 -8 20 -11 23 -8 3 3 26
-3 50 -13 24 -11 44 -17 44 -14 0 3 13 -4 29 -15 16 -12 32 -21 37 -21 19 0
118 -86 154 -133 83 -111 119 -282 97 -460 -8 -61 -39 -167 -49 -167 -4 0 -8
-9 -8 -20 0 -11 -4 -20 -9 -20 -5 0 -13 -9 -16 -20 -7 -23 -130 -150 -144
-150 -5 0 -16 -6 -23 -12 -21 -21 -78 -50 -78 -41 0 4 -4 2 -9 -5 -4 -7 -14
-15 -22 -16 -8 -2 -26 -8 -40 -14 -14 -5 -39 -13 -55 -16 -16 -2 -40 -7 -54
-11 -14 -3 -38 -8 -54 -11 -16 -2 -33 -7 -38 -10 -4 -3 -8 1 -8 8 0 8 -3 9 -8
3 -4 -7 -155 -10 -429 -10 l-423 0 -1 120 c0 66 -2 128 -4 138 -2 9 0 17 5 17
4 0 6 8 4 18 -8 33 -9 302 -1 302 5 0 6 4 2 9 -5 9 -7 187 -6 485 1 100 3 117
16 113 8 -4 17 -2 20 2 3 5 21 5 40 1 22 -5 35 -4 35 2z m870 -1616 c25 -2 45
-5 45 -6 0 -1 13 -3 28 -5 59 -8 137 -29 137 -37 0 -4 4 -7 8 -5 13 4 82 -26
82 -35 0 -5 5 -6 10 -3 6 3 13 -1 16 -9 3 -9 9 -14 14 -11 9 6 98 -78 133
-125 29 -40 89 -157 92 -180 1 -8 4 -26 8 -40 4 -14 10 -41 13 -60 8 -46 12
-292 5 -305 -6 -11 -7 -13 -16 -59 -19 -93 -85 -207 -163 -282 -75 -71 -78
-74 -90 -74 -7 0 -12 -5 -12 -11 0 -5 -4 -7 -10 -4 -5 3 -10 2 -10 -2 0 -11
-81 -47 -97 -44 -7 1 -13 -2 -13 -7 0 -9 -47 -23 -90 -28 -8 -1 -17 -3 -20 -4
-10 -3 -46 -10 -85 -16 -22 -3 -248 -7 -502 -8 l-463 -1 -1 45 c0 25 -2 53 -4
63 -2 9 0 17 5 17 4 0 6 8 4 18 -8 33 -9 302 -1 302 5 0 5 4 2 10 -10 16 -6
903 4 909 11 7 906 4 971 -3z"/>
<path d="M3617 9183 c-12 -7 -17 -12 -12 -13 7 0 10 -636 10 -1887 l0 -1888
240 -1 c132 0 245 1 250 3 7 2 10 494 10 1458 0 800 2 1455 5 1455 8 -1 90
-128 90 -140 0 -5 4 -10 8 -10 5 0 15 -12 23 -27 8 -16 16 -30 19 -33 3 -3 21
-30 40 -60 19 -30 38 -56 42 -58 5 -2 8 -10 8 -18 0 -8 5 -14 10 -14 6 0 10
-7 10 -15 0 -8 5 -15 10 -15 6 0 10 -6 10 -14 0 -7 7 -19 15 -26 9 -7 13 -15
11 -17 -2 -3 5 -15 16 -28 11 -13 19 -26 18 -30 -1 -4 3 -11 8 -14 5 -3 41
-55 80 -116 40 -60 76 -115 82 -122 5 -7 10 -16 10 -21 0 -5 9 -17 20 -27 11
-10 20 -21 20 -25 0 -5 40 -68 88 -141 173 -262 226 -344 239 -369 4 -8 11
-19 16 -25 21 -25 177 -267 177 -276 0 -5 4 -9 9 -9 5 0 14 -14 21 -30 7 -17
18 -34 24 -38 6 -4 20 -24 31 -44 11 -21 22 -38 26 -38 3 0 11 -11 17 -24 6
-13 60 -99 121 -191 61 -92 111 -169 111 -171 0 -5 63 -96 78 -112 7 -8 10
-17 8 -21 -3 -4 4 -14 15 -21 10 -8 19 -18 19 -22 0 -11 133 -212 143 -216 4
-2 5 -7 2 -12 -2 -4 4 -15 15 -25 11 -10 20 -24 20 -32 0 -7 5 -13 10 -13 6 0
10 -7 10 -15 0 -8 4 -15 10 -15 5 0 12 -11 16 -25 3 -14 10 -25 15 -25 5 0 13
-8 16 -17 4 -10 28 -50 53 -88 l47 -70 249 1 c137 1 251 2 254 3 4 1 5 3657 1
3771 l-1 25 -240 0 c-132 0 -240 -4 -240 -8 0 -5 -4 -6 -8 -3 -4 2 -7 -645 -7
-1439 0 -794 -3 -1454 -7 -1467 -3 -13 -6 -17 -7 -11 -1 7 -21 42 -46 79 -25
36 -45 67 -45 70 0 8 -44 69 -52 72 -5 2 -8 9 -8 16 0 6 -7 21 -15 31 -33 42
-165 246 -165 255 0 5 -6 13 -13 17 -8 4 -17 15 -20 23 -4 8 -16 29 -27 45
-11 17 -25 40 -31 53 -7 12 -16 22 -21 22 -4 0 -8 6 -8 13 0 7 -9 23 -20 35
-11 12 -20 24 -20 27 0 3 -27 46 -60 95 -33 49 -60 93 -60 99 0 5 -7 11 -15
15 -8 3 -15 10 -15 16 0 11 -39 71 -53 81 -5 3 -8 10 -8 15 0 5 -9 19 -19 32
-11 12 -18 22 -15 22 2 0 -20 36 -50 80 -30 45 -55 85 -55 90 0 4 -3 10 -8 12
-4 2 -27 35 -52 73 -24 39 -47 72 -50 75 -7 7 -29 42 -37 60 -4 8 -9 17 -13
20 -3 3 -19 26 -35 52 -17 27 -34 48 -38 48 -5 0 -5 5 -2 10 3 6 1 10 -4 10
-6 0 -11 4 -11 9 0 12 -61 105 -72 109 -4 2 -8 8 -8 13 0 8 -98 163 -123 194
-21 27 -77 118 -77 126 0 5 -4 9 -10 9 -5 0 -10 7 -10 15 0 8 -4 15 -10 15 -5
0 -10 7 -10 15 0 8 -4 15 -10 15 -5 0 -10 7 -10 15 0 8 -4 15 -10 15 -5 0 -10
4 -10 9 0 5 -36 63 -80 130 -44 66 -80 123 -80 126 0 3 -8 15 -18 26 -11 10
-25 32 -33 47 -8 15 -22 36 -31 46 -10 11 -18 24 -18 29 0 4 -6 15 -12 22 -7
8 -51 73 -97 144 -78 120 -87 131 -115 132 -17 0 -55 1 -84 2 -29 1 -52 -2
-52 -8 0 -7 -3 -7 -8 0 -11 15 -298 13 -325 -2z"/>
<path d="M7449 9190 l-36 -5 1 -1895 1 -1895 690 0 c461 0 692 3 697 10 5 7 8
7 8 -1 0 -11 13 -10 120 1 36 4 80 8 98 9 17 0 32 3 32 7 0 3 10 5 23 5 12 -1
27 0 32 3 6 3 15 6 20 8 6 1 21 4 35 7 14 3 40 9 58 12 17 3 32 9 32 13 0 4
12 8 27 9 15 1 32 7 37 12 6 6 18 10 28 10 10 0 18 4 18 10 0 5 3 9 8 8 13 -4
82 26 82 35 0 4 5 5 10 2 6 -3 10 -1 10 4 0 6 5 11 11 11 24 0 155 98 230 172
43 43 79 82 79 86 1 4 9 16 18 27 51 58 143 282 157 383 16 108 19 148 18 262
0 158 -30 307 -81 405 -9 17 -17 36 -18 43 -1 8 -9 21 -17 30 -8 10 -26 37
-40 62 -14 25 -42 61 -61 82 -19 20 -32 39 -29 42 4 3 2 6 -3 6 -5 0 -30 18
-54 40 -24 22 -50 40 -58 40 -7 0 -11 4 -8 9 3 5 -8 14 -24 21 -17 7 -30 16
-30 21 0 5 -3 8 -7 7 -8 -2 -64 23 -73 32 -3 3 -9 6 -15 7 -5 1 -39 13 -75 27
l-64 24 67 31 c37 17 67 36 67 41 0 6 3 9 8 8 11 -4 82 42 82 53 0 6 4 8 9 5
5 -3 17 6 27 19 10 14 22 25 26 25 8 0 58 48 58 55 0 3 12 17 28 32 15 16 33
37 39 48 30 47 78 130 78 135 1 3 6 15 13 27 28 50 54 198 55 303 0 146 -10
223 -44 350 -23 83 -95 240 -112 240 -6 0 -8 3 -4 6 9 10 -114 144 -133 144
-5 0 -10 4 -10 9 0 18 -234 152 -267 153 -4 0 -17 5 -28 11 -11 6 -24 10 -29
9 -4 -2 -14 3 -22 9 -8 6 -14 8 -14 4 0 -4 -6 -2 -13 4 -8 6 -30 12 -50 13
-20 2 -37 5 -37 8 0 5 -19 9 -57 12 -7 1 -13 4 -13 7 0 3 -15 7 -33 8 -38 2
-132 11 -132 13 0 3 -211 11 -338 13 -79 1 -127 -2 -127 -8 0 -7 -3 -7 -8 0
-4 6 -122 10 -317 10 -195 0 -313 -4 -317 -10 -5 -7 -8 -7 -8 0 0 10 -264 14
-331 5z m544 -414 c15 -3 27 0 27 6 0 7 4 7 13 0 7 -6 19 -7 26 -3 7 5 28 5
47 1 20 -5 34 -4 34 1 0 6 8 5 19 -1 12 -6 22 -6 25 -1 3 5 21 5 41 1 22 -5
35 -4 35 2 0 7 4 7 13 0 8 -7 18 -7 27 -2 9 5 19 5 27 -2 9 -7 13 -7 13 2 0 9
4 9 13 2 7 -6 19 -7 26 -3 7 5 28 5 47 1 20 -5 34 -4 34 1 0 6 8 5 19 -1 12
-6 22 -6 25 -1 3 5 21 5 41 1 22 -5 35 -4 35 2 0 7 4 7 13 0 8 -7 18 -7 27 -2
9 5 19 5 27 -2 10 -8 13 -7 13 3 0 10 3 10 11 2 8 -8 20 -8 35 -3 13 5 24 6
24 2 0 -4 24 -8 53 -9 53 -3 83 -6 147 -19 19 -3 40 -7 47 -8 7 -1 16 -5 19
-9 4 -4 13 -7 21 -7 20 0 102 -39 153 -74 118 -79 197 -212 215 -363 6 -46 6
-168 1 -203 -13 -80 -37 -154 -62 -192 -13 -21 -24 -41 -24 -46 0 -4 -27 -35
-60 -70 -33 -34 -60 -59 -60 -56 0 3 -15 -6 -33 -20 -19 -15 -39 -26 -45 -26
-7 0 -12 -4 -12 -9 0 -10 -69 -37 -82 -33 -5 1 -8 -2 -8 -7 0 -5 -19 -12 -42
-16 -24 -4 -50 -11 -58 -15 -9 -5 -38 -11 -65 -13 -28 -3 -50 -6 -50 -7 0 -5
-857 -5 -863 0 -12 8 -9 284 3 292 6 5 6 8 0 8 -14 0 -14 250 0 250 6 0 7 3 0
8 -13 10 -14 215 0 224 6 5 7 8 0 8 -6 0 -10 31 -10 75 0 44 4 75 10 75 7 0 7
3 0 8 -16 11 -14 254 3 247 6 -2 12 0 12 5 0 5 6 7 13 5 6 -2 24 -7 40 -9z
m777 -1610 c0 -5 6 -3 13 3 8 6 16 9 18 6 3 -2 33 -5 67 -6 34 -1 60 -5 58 -8
-2 -3 14 -7 36 -8 23 0 62 -7 87 -13 56 -15 165 -61 169 -72 2 -4 8 -8 13 -8
21 0 149 -126 149 -147 0 -7 4 -13 9 -13 5 0 15 -16 22 -35 7 -19 17 -35 23
-35 5 0 6 -3 3 -6 -3 -4 -1 -16 5 -27 42 -80 66 -311 44 -437 -4 -25 -9 -54
-11 -65 -7 -45 -50 -143 -86 -196 -42 -62 -95 -119 -110 -119 -6 0 -7 -4 -4
-10 3 -5 -1 -10 -9 -10 -9 0 -16 -4 -16 -9 0 -5 -8 -11 -17 -15 -18 -5 -53
-26 -63 -36 -10 -10 -55 -29 -75 -32 -11 -2 -23 -6 -26 -11 -3 -4 -15 -10 -27
-12 -12 -3 -32 -7 -44 -10 -30 -7 -73 -15 -128 -22 -25 -3 -249 -6 -499 -7
l-455 -1 -1 78 c-1 48 3 77 10 77 7 0 7 3 0 8 -14 10 -14 294 0 304 6 5 6 8 0
8 -14 0 -14 250 0 250 6 0 7 3 0 8 -13 10 -14 215 0 224 7 5 7 8 0 8 -14 0
-14 143 0 152 7 5 7 8 0 8 -15 0 -12 229 2 238 17 10 843 8 843 -2z"/>
<path d="M3790 4695 c0 -6 -32 -11 -73 -12 -78 -2 -132 -7 -187 -18 -19 -4
-41 -8 -47 -8 -7 0 -13 -4 -13 -9 0 -4 -3 -7 -7 -6 -17 3 -83 -15 -83 -23 0
-5 -7 -6 -15 -3 -8 4 -15 1 -15 -7 0 -7 -3 -9 -6 -6 -15 15 -202 -100 -261
-160 -12 -13 -27 -23 -33 -23 -5 0 -10 -3 -10 -7 0 -5 -21 -30 -45 -56 -25
-27 -45 -52 -45 -56 0 -4 -8 -16 -18 -27 -35 -38 -119 -229 -137 -312 -3 -12
-8 -32 -11 -44 -3 -13 -7 -30 -9 -38 -2 -8 -4 -15 -5 -15 -1 0 -3 -11 -5 -25
-2 -14 -6 -38 -10 -55 -11 -51 -24 -158 -29 -241 -1 -27 -5 -54 -8 -60 -7 -12
-6 -1054 1 -1054 3 0 6 -19 7 -43 1 -48 11 -158 19 -199 3 -16 7 -38 9 -50 41
-222 125 -446 203 -538 13 -16 23 -31 23 -34 0 -10 129 -136 139 -136 5 0 11
-4 13 -8 11 -30 221 -145 298 -164 19 -5 44 -11 55 -14 53 -15 116 -26 175
-30 130 -10 150 -10 154 1 3 6 5 5 5 -2 1 -7 7 -11 14 -8 6 2 46 6 87 10 41 3
102 13 135 22 33 8 68 17 78 18 23 5 191 77 197 85 3 3 32 24 65 46 55 36 195
167 195 182 0 4 11 20 25 36 14 16 25 35 25 43 0 7 4 13 8 13 4 0 19 25 32 55
13 30 29 55 34 55 5 0 7 3 3 6 -3 3 3 30 14 59 59 159 95 355 115 625 5 68 5
925 0 1002 -12 183 -58 462 -87 523 -5 11 -11 29 -12 40 -2 11 -9 31 -14 45
-6 14 -19 45 -29 70 -9 25 -25 56 -34 70 -8 14 -22 37 -30 53 -7 15 -17 27
-22 27 -4 0 -8 6 -8 13 0 13 -133 157 -145 157 -4 0 -15 8 -24 18 -31 34 -186
125 -216 126 -5 1 -16 7 -23 14 -8 7 -18 10 -23 7 -5 -4 -15 -3 -21 2 -7 4
-15 8 -18 9 -3 0 -12 3 -20 7 -45 17 -185 39 -265 41 -27 0 -53 6 -57 11 -5 7
-8 7 -8 0z m110 -368 c14 -2 31 -6 38 -10 6 -5 16 -6 21 -2 5 3 15 0 23 -7 7
-7 22 -14 33 -16 22 -4 103 -49 123 -69 7 -7 21 -18 30 -25 41 -30 136 -164
147 -208 1 -3 5 -14 9 -25 5 -11 10 -27 14 -35 3 -8 4 -21 3 -27 -1 -7 2 -13
6 -13 5 0 9 -8 10 -19 1 -10 7 -38 14 -62 7 -24 12 -48 10 -53 -1 -5 1 -16 5
-25 3 -9 8 -29 9 -46 2 -16 7 -68 12 -115 10 -106 11 -1110 0 -1205 -4 -38 -9
-90 -11 -115 -2 -25 -5 -45 -6 -45 -2 0 -11 -59 -13 -87 -1 -10 -4 -18 -7 -18
-3 0 -6 -8 -7 -17 -1 -22 -8 -51 -21 -83 -5 -14 -10 -28 -10 -33 -1 -4 -10
-28 -22 -53 -11 -26 -20 -49 -20 -53 0 -9 -66 -100 -100 -137 -44 -49 -137
-108 -210 -134 -56 -21 -84 -24 -204 -24 -98 0 -141 3 -143 11 -3 7 -10 10
-17 7 -17 -7 -149 61 -186 96 -18 17 -34 30 -37 30 -6 0 -52 54 -53 62 0 4
-11 19 -25 34 -13 14 -22 30 -20 35 3 4 -2 12 -11 17 -9 5 -15 12 -15 15 1 4
-6 24 -15 45 -20 47 -61 181 -68 224 -3 18 -8 44 -11 58 -3 14 -7 48 -9 77 -2
28 -6 55 -9 60 -8 15 -10 141 -10 628 0 546 3 626 38 815 14 78 75 250 87 250
5 0 8 9 8 20 0 11 5 20 10 20 6 0 10 5 10 10 0 38 185 203 227 203 7 0 13 4
13 8 0 8 96 34 128 33 12 0 22 3 22 7 0 6 134 3 210 -4z"/>
<path d="M6436 4692 c-4 -4 -31 -8 -59 -8 -66 -2 -156 -12 -166 -18 -4 -3 -23
-8 -42 -11 -19 -3 -58 -15 -87 -25 -28 -11 -54 -20 -57 -20 -18 -2 -132 -63
-173 -93 -88 -63 -194 -162 -205 -191 -4 -9 -11 -16 -17 -16 -5 0 -10 -5 -10
-12 0 -6 -6 -19 -14 -27 -19 -22 -77 -131 -69 -131 3 0 1 -6 -4 -12 -6 -7 -16
-31 -23 -53 -7 -22 -17 -46 -23 -52 -5 -7 -7 -13 -4 -13 4 0 0 -18 -8 -41 -31
-86 -68 -322 -81 -509 -8 -113 -8 -890 0 -1005 17 -242 44 -395 98 -565 25
-81 116 -270 129 -270 5 0 9 -6 9 -12 0 -7 18 -33 40 -57 22 -25 40 -48 40
-53 0 -4 4 -8 8 -8 4 0 32 -23 62 -50 30 -28 60 -50 67 -50 7 0 13 -4 13 -8 0
-21 258 -139 300 -137 8 0 17 -2 20 -6 3 -4 21 -9 41 -12 20 -2 42 -8 48 -11
6 -4 11 -1 11 6 0 8 3 9 8 3 9 -12 29 -14 162 -16 192 -2 334 27 486 97 28 13
56 24 62 24 7 0 12 5 12 10 0 6 11 15 25 20 14 5 25 14 25 20 0 6 4 9 9 5 5
-3 17 5 25 17 9 12 16 19 16 15 0 -4 12 4 27 18 15 14 31 25 36 25 4 0 5 5 2
10 -3 6 -2 10 4 10 6 0 21 11 35 25 14 14 23 25 20 25 -3 0 9 15 25 33 17 17
31 35 31 39 0 4 6 13 13 20 36 38 135 276 151 363 3 17 10 45 16 64 5 19 7 37
5 42 -3 4 -1 10 4 14 5 3 10 13 9 23 0 18 10 117 12 117 3 0 7 40 14 120 4 43
9 81 11 83 2 3 0 13 -6 23 -5 11 -6 19 -1 19 12 0 12 950 0 974 -8 14 -7 17 3
11 8 -6 10 -4 5 4 -5 7 -9 31 -11 54 -5 82 -20 202 -25 202 -1 0 -3 16 -5 35
-12 125 -76 321 -148 453 -39 71 -142 205 -159 206 -4 1 -18 11 -31 24 -38 36
-65 56 -120 90 -29 17 -54 33 -57 36 -3 4 -9 7 -15 8 -5 1 -54 18 -108 37 -53
19 -100 35 -102 35 -3 -1 -24 3 -48 7 -51 9 -92 13 -175 19 -35 2 -67 7 -71 9
-5 3 -11 2 -15 -2z m139 -366 c11 -3 22 -5 25 -6 3 -1 8 -2 12 -1 15 2 124
-43 163 -67 44 -27 155 -136 155 -151 0 -5 6 -16 14 -23 11 -12 48 -85 55
-110 1 -4 9 -27 17 -50 18 -50 44 -157 50 -208 2 -19 7 -46 9 -60 26 -135 27
-1230 1 -1380 -2 -14 -7 -47 -11 -75 -20 -149 -103 -374 -153 -413 -9 -6 -12
-12 -7 -12 8 0 -76 -83 -118 -117 -31 -25 -120 -62 -185 -77 -65 -15 -229 -16
-279 -2 -13 3 -32 8 -43 10 -50 11 -151 70 -199 116 -42 39 -111 130 -111 146
0 8 -4 14 -10 14 -5 0 -15 18 -21 40 -7 22 -15 40 -19 40 -4 0 -7 6 -8 13 -1
12 -9 47 -12 57 -1 3 -2 8 -1 13 0 4 -4 7 -10 7 -5 0 -7 5 -4 10 4 6 1 17 -5
25 -7 8 -10 20 -7 27 2 7 0 24 -5 37 -11 30 -26 123 -35 221 -10 107 -10 1130
0 1220 5 41 9 82 9 90 0 22 49 243 56 255 4 6 8 19 9 29 2 11 8 25 14 33 6 7
9 13 6 13 -9 0 63 120 92 154 47 53 100 97 148 122 21 10 40 21 43 24 6 6 30
12 48 13 6 0 12 4 12 9 0 5 4 7 9 3 5 -3 12 -1 16 5 4 6 10 8 13 6 4 -2 23 -1
42 3 35 7 187 5 225 -3z"/>
<path d="M1380 4653 c-8 -3 -29 -11 -47 -19 -17 -8 -33 -14 -36 -14 -3 0 -18
-5 -34 -12 -15 -6 -35 -12 -43 -14 -8 -2 -23 -7 -35 -13 -11 -6 -76 -31 -145
-56 -69 -26 -134 -51 -145 -56 -11 -5 -51 -20 -90 -34 -38 -14 -77 -29 -85
-32 -8 -3 -17 -7 -20 -7 -19 -5 -107 -41 -114 -47 -5 -4 -15 -5 -22 -2 -8 3
-14 0 -14 -6 0 -6 -8 -11 -18 -11 -10 0 -22 -3 -26 -7 -3 -4 -12 -8 -19 -9
-16 -3 -148 -53 -162 -62 -5 -3 -18 -8 -29 -9 -10 -2 -33 -10 -50 -17 -17 -8
-41 -17 -53 -21 -13 -3 -24 -9 -24 -13 -6 -32 -3 -382 3 -382 4 0 30 9 58 20
27 11 50 17 50 13 0 -3 9 2 20 12 11 10 20 15 20 12 0 -4 21 2 47 12 57 21 75
28 85 30 4 1 28 10 53 21 25 11 45 17 45 14 0 -2 13 2 29 10 16 9 31 12 35 9
3 -4 6 -2 6 4 0 6 15 14 33 18 17 4 34 9 37 10 3 1 18 7 33 13 16 7 30 12 32
12 2 0 16 5 32 12 15 6 35 13 43 15 8 2 20 5 25 6 6 2 19 8 31 15 11 6 33 13
48 16 15 3 33 9 39 14 20 15 56 20 59 8 2 -6 3 -649 3 -1428 -1 -1274 0 -1418
14 -1422 9 -2 105 -4 214 -4 177 -1 197 1 198 16 1 9 2 776 3 1703 l1 1687
-35 0 c-19 0 -42 -2 -50 -5z"/>
<path d="M7940 3770 c0 -6 -4 -8 -10 -5 -6 3 -7 -1 -4 -9 3 -9 10 -16 15 -16
5 0 9 -4 9 -9 0 -5 51 -86 114 -179 63 -94 116 -174 117 -179 2 -4 59 -90 127
-190 67 -101 122 -187 122 -193 0 -5 4 -10 8 -10 5 0 15 -12 23 -27 8 -16 21
-36 30 -46 9 -9 22 -30 30 -45 8 -15 16 -29 19 -32 14 -14 50 -70 50 -79 0 -5
3 -11 8 -13 4 -1 38 -50 75 -107 l69 -103 -51 -77 c-28 -42 -56 -83 -61 -91
-5 -8 -28 -41 -50 -73 -22 -32 -40 -60 -40 -63 0 -5 -40 -64 -50 -74 -3 -3
-21 -30 -41 -60 -242 -366 -335 -506 -341 -508 -5 -2 -8 -10 -8 -18 0 -8 -4
-14 -10 -14 -5 0 -10 -5 -10 -10 0 -6 -25 -47 -55 -91 -30 -44 -55 -82 -55
-85 0 -3 -9 -15 -20 -27 -12 -12 -23 -32 -26 -44 -4 -13 -10 -23 -15 -23 -5 0
-9 -4 -9 -8 0 -5 111 -9 246 -9 l246 0 44 68 c24 37 44 72 44 77 0 6 4 12 8
14 7 3 171 265 231 370 14 24 31 49 38 56 7 7 13 17 13 22 0 8 79 134 97 155
5 6 10 15 12 20 1 6 23 43 48 83 44 70 46 72 64 56 11 -9 19 -23 19 -30 0 -7
6 -19 13 -26 10 -11 108 -167 142 -226 16 -28 214 -350 258 -419 21 -34 38
-65 37 -69 -1 -4 2 -10 7 -13 8 -6 40 -53 76 -113 l16 -26 241 0 c132 0 242 3
244 7 2 3 -59 100 -135 214 -76 115 -139 212 -139 217 0 5 -3 10 -8 12 -9 4
-234 338 -227 338 2 0 -7 12 -20 26 -14 15 -25 31 -25 35 0 5 -8 18 -17 29
-10 11 -16 23 -15 27 2 3 -1 9 -6 12 -13 9 -122 170 -122 181 0 6 -4 10 -10
10 -5 0 -10 6 -10 14 0 8 -4 16 -8 18 -5 2 -28 33 -52 71 l-42 67 42 65 c23
35 50 73 61 86 10 12 16 26 13 30 -3 5 -1 9 4 9 8 0 86 115 90 133 1 4 8 14
16 22 8 8 24 31 37 52 13 21 29 44 36 51 7 7 13 17 13 21 0 4 9 17 20 29 12
12 19 22 16 22 -5 0 42 71 82 125 12 17 22 34 21 39 0 5 3 12 8 15 5 3 39 52
77 108 37 56 71 105 77 108 5 4 7 11 4 16 -4 5 -1 9 4 9 6 0 11 6 11 14 0 8 3
16 8 18 4 2 25 30 46 63 22 33 61 92 88 132 l47 71 -42 0 c-23 0 -46 1 -52 2
-5 1 -44 1 -85 0 -91 -2 -142 -2 -155 0 -39 6 -162 -3 -172 -13 -17 -17 -103
-157 -103 -168 0 -5 -4 -9 -9 -9 -5 0 -13 -9 -16 -21 -4 -11 -23 -46 -43 -77
-21 -32 -42 -66 -49 -77 -6 -11 -45 -74 -85 -140 -40 -66 -75 -124 -77 -130
-2 -5 -7 -12 -10 -15 -4 -3 -20 -27 -36 -55 -15 -27 -31 -52 -34 -55 -3 -3
-17 -27 -31 -53 -14 -26 -34 -60 -46 -74 l-20 -26 -20 34 c-11 19 -22 39 -24
44 -2 6 -8 15 -13 20 -5 6 -55 89 -112 185 -57 96 -108 180 -112 185 -5 6 -20
30 -33 55 -14 25 -28 47 -32 48 -5 2 -8 8 -8 13 0 6 -18 36 -39 69 -22 32 -42
68 -46 79 -3 12 -12 27 -18 33 -7 7 -31 44 -52 81 -36 62 -43 68 -67 64 -16
-2 -28 0 -28 5 0 5 -5 6 -12 2 -7 -4 -24 -8 -38 -8 -14 0 -31 4 -38 8 -7 4
-12 4 -12 -1 0 -9 -134 -8 -149 2 -6 3 -11 3 -11 -2 0 -9 -134 -8 -149 2 -6 3
-11 1 -11 -5z"/>
</g>
</svg>
